<?xml version="1.0" encoding="utf-8" standalone="no"?>
<!DOCTYPE svg PUBLIC "-//W3C//DTD SVG 1.1//EN"
  "http://www.w3.org/Graphics/SVG/1.1/DTD/svg11.dtd">
<svg xmlns:xlink="http://www.w3.org/1999/xlink" width="478.565pt" height="299.034312pt" viewBox="0 0 478.565 299.034312" xmlns="http://www.w3.org/2000/svg" version="1.1">
 <metadata>
  <rdf:RDF xmlns:dc="http://purl.org/dc/elements/1.1/" xmlns:cc="http://creativecommons.org/ns#" xmlns:rdf="http://www.w3.org/1999/02/22-rdf-syntax-ns#">
   <cc:Work>
    <dc:type rdf:resource="http://purl.org/dc/dcmitype/StillImage"/>
    <dc:date>2026-04-29T15:10:09.009018</dc:date>
    <dc:format>image/svg+xml</dc:format>
    <dc:creator>
     <cc:Agent>
      <dc:title>Matplotlib v3.10.9, https://matplotlib.org/</dc:title>
     </cc:Agent>
    </dc:creator>
   </cc:Work>
  </rdf:RDF>
 </metadata>
 <defs>
  <style type="text/css">*{stroke-linejoin: round; stroke-linecap: butt}</style>
 </defs>
 <g id="figure_1">
  <g id="patch_1">
   <path d="M 0 299.034312 
L 478.565 299.034312 
L 478.565 0 
L 0 0 
z
" style="fill: #ffffff"/>
  </g>
  <g id="axes_1">
   <g id="patch_2">
    <path d="M 39.22 259.208 
L 474.965 259.208 
L 474.965 3.6 
L 39.22 3.6 
z
" style="fill: #ffffff"/>
   </g>
   <g id="matplotlib.axis_1">
    <g id="xtick_1">
     <g id="line2d_1">
      <path d="M 93.688125 259.208 
L 93.688125 3.6 
" clip-path="url(#pd3f44cb5ff)" style="fill: none; stroke: #b0b0b0; stroke-opacity: 0.3; stroke-width: 0.5; stroke-linecap: square"/>
     </g>
     <g id="line2d_2">
      <defs>
       <path id="mc14b763777" d="M 0 0 
L 0 3.5 
" style="stroke: #000000; stroke-width: 0.8"/>
      </defs>
      <g>
       <use xlink:href="#mc14b763777" x="93.688125" y="259.208" style="stroke: #000000; stroke-width: 0.8"/>
      </g>
     </g>
     <g id="text_1">
      <!-- ITW-SM -->
      <g transform="translate(65.238594 276.845812) scale(0.14 -0.14)">
       <defs>
        <path id="DejaVuSerif-49" d="M 1581 331 
L 2175 331 
L 2175 0 
L 353 0 
L 353 331 
L 947 331 
L 947 4331 
L 353 4331 
L 353 4666 
L 2175 4666 
L 2175 4331 
L 1581 4331 
L 1581 331 
z
" transform="scale(0.015625)"/>
        <path id="DejaVuSerif-54" d="M 1222 0 
L 1222 331 
L 1819 331 
L 1819 4294 
L 447 4294 
L 447 3566 
L 63 3566 
L 63 4666 
L 4206 4666 
L 4206 3566 
L 3822 3566 
L 3822 4294 
L 2450 4294 
L 2450 331 
L 3047 331 
L 3047 0 
L 1222 0 
z
" transform="scale(0.015625)"/>
        <path id="DejaVuSerif-57" d="M 4878 0 
L 4366 0 
L 3297 3794 
L 2228 0 
L 1716 0 
L 494 4331 
L 31 4331 
L 31 4666 
L 1734 4666 
L 1734 4331 
L 1153 4331 
L 2125 884 
L 3188 4666 
L 3694 4666 
L 4775 844 
L 5753 4331 
L 5216 4331 
L 5216 4666 
L 6559 4666 
L 6559 4331 
L 6100 4331 
L 4878 0 
z
" transform="scale(0.015625)"/>
        <path id="DejaVuSerif-2d" d="M 281 1959 
L 1881 1959 
L 1881 1472 
L 281 1472 
L 281 1959 
z
" transform="scale(0.015625)"/>
        <path id="DejaVuSerif-53" d="M 594 225 
L 594 1288 
L 953 1284 
Q 969 753 1261 498 
Q 1553 244 2150 244 
Q 2706 244 2998 464 
Q 3291 684 3291 1106 
Q 3291 1444 3114 1625 
Q 2938 1806 2369 1978 
L 1753 2163 
Q 1084 2366 811 2669 
Q 538 2972 538 3500 
Q 538 4094 959 4422 
Q 1381 4750 2144 4750 
Q 2469 4750 2856 4679 
Q 3244 4609 3681 4475 
L 3681 3481 
L 3328 3481 
Q 3275 3975 2998 4195 
Q 2722 4416 2156 4416 
Q 1663 4416 1405 4214 
Q 1147 4013 1147 3628 
Q 1147 3294 1340 3103 
Q 1534 2913 2163 2725 
L 2741 2553 
Q 3375 2363 3645 2067 
Q 3916 1772 3916 1275 
Q 3916 597 3481 253 
Q 3047 -91 2188 -91 
Q 1803 -91 1404 -12 
Q 1006 66 594 225 
z
" transform="scale(0.015625)"/>
        <path id="DejaVuSerif-4d" d="M 353 0 
L 353 331 
L 947 331 
L 947 4331 
L 319 4331 
L 319 4666 
L 1678 4666 
L 3316 1344 
L 4953 4666 
L 6228 4666 
L 6228 4331 
L 5606 4331 
L 5606 331 
L 6203 331 
L 6203 0 
L 4378 0 
L 4378 331 
L 4972 331 
L 4972 3938 
L 3372 684 
L 2931 684 
L 1331 3938 
L 1331 331 
L 1925 331 
L 1925 0 
L 353 0 
z
" transform="scale(0.015625)"/>
       </defs>
       <use xlink:href="#DejaVuSerif-49"/>
       <use xlink:href="#DejaVuSerif-54" transform="translate(39.501953 0)"/>
       <use xlink:href="#DejaVuSerif-57" transform="translate(106.201172 0)"/>
       <use xlink:href="#DejaVuSerif-2d" transform="translate(201.734375 0)"/>
       <use xlink:href="#DejaVuSerif-53" transform="translate(235.523438 0)"/>
       <use xlink:href="#DejaVuSerif-4d" transform="translate(304.029297 0)"/>
      </g>
      <!-- (Real) -->
      <g transform="translate(72.399375 292.52275) scale(0.14 -0.14)">
       <defs>
        <path id="DejaVuSerif-28" d="M 2041 -997 
Q 1281 -656 893 83 
Q 506 822 506 1931 
Q 506 3044 893 3783 
Q 1281 4522 2041 4863 
L 2041 4556 
Q 1559 4225 1350 3623 
Q 1141 3022 1141 1931 
Q 1141 844 1350 242 
Q 1559 -359 2041 -691 
L 2041 -997 
z
" transform="scale(0.015625)"/>
        <path id="DejaVuSerif-52" d="M 3066 2316 
Q 3284 2256 3442 2114 
Q 3600 1972 3725 1716 
L 4403 331 
L 4972 331 
L 4972 0 
L 3872 0 
L 3144 1484 
Q 2934 1916 2759 2042 
Q 2584 2169 2278 2169 
L 1581 2169 
L 1581 331 
L 2241 331 
L 2241 0 
L 353 0 
L 353 331 
L 947 331 
L 947 4331 
L 353 4331 
L 353 4666 
L 2719 4666 
Q 3400 4666 3770 4341 
Q 4141 4016 4141 3419 
Q 4141 2938 3870 2661 
Q 3600 2384 3066 2316 
z
M 1581 2503 
L 2503 2503 
Q 2975 2503 3200 2726 
Q 3425 2950 3425 3419 
Q 3425 3888 3200 4109 
Q 2975 4331 2503 4331 
L 1581 4331 
L 1581 2503 
z
" transform="scale(0.015625)"/>
        <path id="DejaVuSerif-65" d="M 3469 1600 
L 991 1600 
L 991 1575 
Q 991 903 1244 561 
Q 1497 219 1991 219 
Q 2369 219 2611 417 
Q 2853 616 2950 1006 
L 3413 1006 
Q 3275 459 2904 184 
Q 2534 -91 1931 -91 
Q 1203 -91 761 389 
Q 319 869 319 1663 
Q 319 2450 753 2931 
Q 1188 3413 1894 3413 
Q 2647 3413 3050 2948 
Q 3453 2484 3469 1600 
z
M 2791 1931 
Q 2772 2513 2545 2808 
Q 2319 3103 1894 3103 
Q 1497 3103 1269 2806 
Q 1041 2509 991 1931 
L 2791 1931 
z
" transform="scale(0.015625)"/>
        <path id="DejaVuSerif-61" d="M 2547 1044 
L 2547 1747 
L 1806 1747 
Q 1378 1747 1168 1562 
Q 959 1378 959 997 
Q 959 650 1171 447 
Q 1384 244 1747 244 
Q 2106 244 2326 466 
Q 2547 688 2547 1044 
z
M 3122 2075 
L 3122 331 
L 3634 331 
L 3634 0 
L 2547 0 
L 2547 359 
Q 2356 128 2106 18 
Q 1856 -91 1522 -91 
Q 969 -91 644 203 
Q 319 497 319 997 
Q 319 1513 691 1797 
Q 1063 2081 1741 2081 
L 2547 2081 
L 2547 2309 
Q 2547 2688 2317 2895 
Q 2088 3103 1672 3103 
Q 1328 3103 1125 2947 
Q 922 2791 872 2484 
L 575 2484 
L 575 3156 
Q 875 3284 1158 3348 
Q 1441 3413 1709 3413 
Q 2400 3413 2761 3070 
Q 3122 2728 3122 2075 
z
" transform="scale(0.015625)"/>
        <path id="DejaVuSerif-6c" d="M 1313 331 
L 1856 331 
L 1856 0 
L 184 0 
L 184 331 
L 738 331 
L 738 4531 
L 184 4531 
L 184 4863 
L 1313 4863 
L 1313 331 
z
" transform="scale(0.015625)"/>
        <path id="DejaVuSerif-29" d="M 453 -997 
L 453 -691 
Q 934 -359 1145 242 
Q 1356 844 1356 1931 
Q 1356 3022 1145 3623 
Q 934 4225 453 4556 
L 453 4863 
Q 1216 4522 1603 3783 
Q 1991 3044 1991 1931 
Q 1991 822 1603 83 
Q 1216 -656 453 -997 
z
" transform="scale(0.015625)"/>
       </defs>
       <use xlink:href="#DejaVuSerif-28"/>
       <use xlink:href="#DejaVuSerif-52" transform="translate(39.013672 0)"/>
       <use xlink:href="#DejaVuSerif-65" transform="translate(114.306641 0)"/>
       <use xlink:href="#DejaVuSerif-61" transform="translate(173.486328 0)"/>
       <use xlink:href="#DejaVuSerif-6c" transform="translate(233.105469 0)"/>
       <use xlink:href="#DejaVuSerif-29" transform="translate(265.087891 0)"/>
      </g>
     </g>
    </g>
    <g id="xtick_2">
     <g id="line2d_3">
      <path d="M 202.624375 259.208 
L 202.624375 3.6 
" clip-path="url(#pd3f44cb5ff)" style="fill: none; stroke: #b0b0b0; stroke-opacity: 0.3; stroke-width: 0.5; stroke-linecap: square"/>
     </g>
     <g id="line2d_4">
      <g>
       <use xlink:href="#mc14b763777" x="202.624375" y="259.208" style="stroke: #000000; stroke-width: 0.8"/>
      </g>
     </g>
     <g id="text_2">
      <!-- ITW-SM -->
      <g transform="translate(174.174844 276.845812) scale(0.14 -0.14)">
       <use xlink:href="#DejaVuSerif-49"/>
       <use xlink:href="#DejaVuSerif-54" transform="translate(39.501953 0)"/>
       <use xlink:href="#DejaVuSerif-57" transform="translate(106.201172 0)"/>
       <use xlink:href="#DejaVuSerif-2d" transform="translate(201.734375 0)"/>
       <use xlink:href="#DejaVuSerif-53" transform="translate(235.523438 0)"/>
       <use xlink:href="#DejaVuSerif-4d" transform="translate(304.029297 0)"/>
      </g>
      <!-- (AI-Gen) -->
      <g transform="translate(172.732188 292.52275) scale(0.14 -0.14)">
       <defs>
        <path id="DejaVuSerif-41" d="M 1281 1691 
L 2994 1691 
L 2138 3909 
L 1281 1691 
z
M -38 0 
L -38 331 
L 372 331 
L 2034 4666 
L 2559 4666 
L 4225 331 
L 4684 331 
L 4684 0 
L 2988 0 
L 2988 331 
L 3506 331 
L 3116 1356 
L 1153 1356 
L 763 331 
L 1275 331 
L 1275 0 
L -38 0 
z
" transform="scale(0.015625)"/>
        <path id="DejaVuSerif-47" d="M 4097 3272 
Q 3988 3856 3641 4136 
Q 3294 4416 2675 4416 
Q 1869 4416 1472 3897 
Q 1075 3378 1075 2328 
Q 1075 1300 1484 772 
Q 1894 244 2688 244 
Q 3041 244 3362 331 
Q 3684 419 3975 594 
L 3975 1797 
L 3097 1797 
L 3097 2131 
L 4609 2131 
L 4609 391 
Q 4194 150 3714 29 
Q 3234 -91 2688 -91 
Q 1631 -91 995 570 
Q 359 1231 359 2328 
Q 359 3434 996 4092 
Q 1634 4750 2713 4750 
Q 3113 4750 3539 4658 
Q 3966 4566 4447 4378 
L 4447 3272 
L 4097 3272 
z
" transform="scale(0.015625)"/>
        <path id="DejaVuSerif-6e" d="M 263 0 
L 263 331 
L 781 331 
L 781 2988 
L 231 2988 
L 231 3322 
L 1356 3322 
L 1356 2731 
Q 1516 3069 1770 3241 
Q 2025 3413 2363 3413 
Q 2913 3413 3172 3097 
Q 3431 2781 3431 2113 
L 3431 331 
L 3944 331 
L 3944 0 
L 2356 0 
L 2356 331 
L 2853 331 
L 2853 1931 
Q 2853 2541 2703 2767 
Q 2553 2994 2175 2994 
Q 1775 2994 1565 2701 
Q 1356 2409 1356 1850 
L 1356 331 
L 1856 331 
L 1856 0 
L 263 0 
z
" transform="scale(0.015625)"/>
       </defs>
       <use xlink:href="#DejaVuSerif-28"/>
       <use xlink:href="#DejaVuSerif-41" transform="translate(39.013672 0)"/>
       <use xlink:href="#DejaVuSerif-49" transform="translate(111.230469 0)"/>
       <use xlink:href="#DejaVuSerif-2d" transform="translate(150.732422 0)"/>
       <use xlink:href="#DejaVuSerif-47" transform="translate(184.521484 0)"/>
       <use xlink:href="#DejaVuSerif-65" transform="translate(264.404297 0)"/>
       <use xlink:href="#DejaVuSerif-6e" transform="translate(323.583984 0)"/>
       <use xlink:href="#DejaVuSerif-29" transform="translate(387.988281 0)"/>
      </g>
     </g>
    </g>
    <g id="xtick_3">
     <g id="line2d_5">
      <path d="M 311.560625 259.208 
L 311.560625 3.6 
" clip-path="url(#pd3f44cb5ff)" style="fill: none; stroke: #b0b0b0; stroke-opacity: 0.3; stroke-width: 0.5; stroke-linecap: square"/>
     </g>
     <g id="line2d_6">
      <g>
       <use xlink:href="#mc14b763777" x="311.560625" y="259.208" style="stroke: #000000; stroke-width: 0.8"/>
      </g>
     </g>
     <g id="text_3">
      <!-- Chameleon -->
      <g transform="translate(271.636563 276.845812) scale(0.14 -0.14)">
       <defs>
        <path id="DejaVuSerif-43" d="M 4513 1234 
Q 4306 581 3820 245 
Q 3334 -91 2591 -91 
Q 2134 -91 1743 65 
Q 1353 222 1050 525 
Q 700 875 529 1320 
Q 359 1766 359 2328 
Q 359 3416 987 4083 
Q 1616 4750 2644 4750 
Q 3025 4750 3456 4650 
Q 3888 4550 4384 4347 
L 4384 3272 
L 4031 3272 
Q 3916 3859 3567 4137 
Q 3219 4416 2591 4416 
Q 1844 4416 1459 3886 
Q 1075 3356 1075 2328 
Q 1075 1303 1459 773 
Q 1844 244 2591 244 
Q 3113 244 3450 492 
Q 3788 741 3938 1234 
L 4513 1234 
z
" transform="scale(0.015625)"/>
        <path id="DejaVuSerif-68" d="M 263 0 
L 263 331 
L 781 331 
L 781 4531 
L 231 4531 
L 231 4863 
L 1356 4863 
L 1356 2731 
Q 1516 3069 1770 3241 
Q 2025 3413 2363 3413 
Q 2913 3413 3172 3097 
Q 3431 2781 3431 2113 
L 3431 331 
L 3944 331 
L 3944 0 
L 2356 0 
L 2356 331 
L 2853 331 
L 2853 1931 
Q 2853 2541 2704 2764 
Q 2556 2988 2175 2988 
Q 1775 2988 1565 2697 
Q 1356 2406 1356 1850 
L 1356 331 
L 1856 331 
L 1856 0 
L 263 0 
z
" transform="scale(0.015625)"/>
        <path id="DejaVuSerif-6d" d="M 3316 2675 
Q 3481 3041 3739 3227 
Q 3997 3413 4341 3413 
Q 4863 3413 5119 3089 
Q 5375 2766 5375 2113 
L 5375 331 
L 5894 331 
L 5894 0 
L 4300 0 
L 4300 331 
L 4800 331 
L 4800 2047 
Q 4800 2556 4650 2772 
Q 4500 2988 4153 2988 
Q 3769 2988 3567 2697 
Q 3366 2406 3366 1850 
L 3366 331 
L 3866 331 
L 3866 0 
L 2291 0 
L 2291 331 
L 2791 331 
L 2791 2069 
Q 2791 2566 2641 2777 
Q 2491 2988 2144 2988 
Q 1759 2988 1557 2697 
Q 1356 2406 1356 1850 
L 1356 331 
L 1856 331 
L 1856 0 
L 263 0 
L 263 331 
L 781 331 
L 781 2994 
L 231 2994 
L 231 3322 
L 1356 3322 
L 1356 2731 
Q 1516 3063 1762 3238 
Q 2009 3413 2322 3413 
Q 2709 3413 2968 3220 
Q 3228 3028 3316 2675 
z
" transform="scale(0.015625)"/>
        <path id="DejaVuSerif-6f" d="M 1925 219 
Q 2388 219 2623 584 
Q 2859 950 2859 1663 
Q 2859 2375 2623 2739 
Q 2388 3103 1925 3103 
Q 1463 3103 1227 2739 
Q 991 2375 991 1663 
Q 991 950 1228 584 
Q 1466 219 1925 219 
z
M 1925 -91 
Q 1200 -91 759 389 
Q 319 869 319 1663 
Q 319 2456 758 2934 
Q 1197 3413 1925 3413 
Q 2653 3413 3092 2934 
Q 3531 2456 3531 1663 
Q 3531 869 3092 389 
Q 2653 -91 1925 -91 
z
" transform="scale(0.015625)"/>
       </defs>
       <use xlink:href="#DejaVuSerif-43"/>
       <use xlink:href="#DejaVuSerif-68" transform="translate(76.513672 0)"/>
       <use xlink:href="#DejaVuSerif-61" transform="translate(140.917969 0)"/>
       <use xlink:href="#DejaVuSerif-6d" transform="translate(200.537109 0)"/>
       <use xlink:href="#DejaVuSerif-65" transform="translate(295.361328 0)"/>
       <use xlink:href="#DejaVuSerif-6c" transform="translate(354.541016 0)"/>
       <use xlink:href="#DejaVuSerif-65" transform="translate(386.523438 0)"/>
       <use xlink:href="#DejaVuSerif-6f" transform="translate(445.703125 0)"/>
       <use xlink:href="#DejaVuSerif-6e" transform="translate(505.908203 0)"/>
      </g>
      <!-- (Real) -->
      <g transform="translate(290.271875 292.52275) scale(0.14 -0.14)">
       <use xlink:href="#DejaVuSerif-28"/>
       <use xlink:href="#DejaVuSerif-52" transform="translate(39.013672 0)"/>
       <use xlink:href="#DejaVuSerif-65" transform="translate(114.306641 0)"/>
       <use xlink:href="#DejaVuSerif-61" transform="translate(173.486328 0)"/>
       <use xlink:href="#DejaVuSerif-6c" transform="translate(233.105469 0)"/>
       <use xlink:href="#DejaVuSerif-29" transform="translate(265.087891 0)"/>
      </g>
     </g>
    </g>
    <g id="xtick_4">
     <g id="line2d_7">
      <path d="M 420.496875 259.208 
L 420.496875 3.6 
" clip-path="url(#pd3f44cb5ff)" style="fill: none; stroke: #b0b0b0; stroke-opacity: 0.3; stroke-width: 0.5; stroke-linecap: square"/>
     </g>
     <g id="line2d_8">
      <g>
       <use xlink:href="#mc14b763777" x="420.496875" y="259.208" style="stroke: #000000; stroke-width: 0.8"/>
      </g>
     </g>
     <g id="text_4">
      <!-- Chameleon -->
      <g transform="translate(380.572812 276.845812) scale(0.14 -0.14)">
       <use xlink:href="#DejaVuSerif-43"/>
       <use xlink:href="#DejaVuSerif-68" transform="translate(76.513672 0)"/>
       <use xlink:href="#DejaVuSerif-61" transform="translate(140.917969 0)"/>
       <use xlink:href="#DejaVuSerif-6d" transform="translate(200.537109 0)"/>
       <use xlink:href="#DejaVuSerif-65" transform="translate(295.361328 0)"/>
       <use xlink:href="#DejaVuSerif-6c" transform="translate(354.541016 0)"/>
       <use xlink:href="#DejaVuSerif-65" transform="translate(386.523438 0)"/>
       <use xlink:href="#DejaVuSerif-6f" transform="translate(445.703125 0)"/>
       <use xlink:href="#DejaVuSerif-6e" transform="translate(505.908203 0)"/>
      </g>
      <!-- (AI-Gen) -->
      <g transform="translate(390.604688 292.52275) scale(0.14 -0.14)">
       <use xlink:href="#DejaVuSerif-28"/>
       <use xlink:href="#DejaVuSerif-41" transform="translate(39.013672 0)"/>
       <use xlink:href="#DejaVuSerif-49" transform="translate(111.230469 0)"/>
       <use xlink:href="#DejaVuSerif-2d" transform="translate(150.732422 0)"/>
       <use xlink:href="#DejaVuSerif-47" transform="translate(184.521484 0)"/>
       <use xlink:href="#DejaVuSerif-65" transform="translate(264.404297 0)"/>
       <use xlink:href="#DejaVuSerif-6e" transform="translate(323.583984 0)"/>
       <use xlink:href="#DejaVuSerif-29" transform="translate(387.988281 0)"/>
      </g>
     </g>
    </g>
   </g>
   <g id="matplotlib.axis_2">
    <g id="ytick_1">
     <g id="line2d_9">
      <path d="M 39.22 249.902223 
L 474.965 249.902223 
" clip-path="url(#pd3f44cb5ff)" style="fill: none; stroke: #b0b0b0; stroke-opacity: 0.3; stroke-width: 0.5; stroke-linecap: square"/>
     </g>
     <g id="line2d_10">
      <defs>
       <path id="ma6fe8733b6" d="M 0 0 
L -3.5 0 
" style="stroke: #000000; stroke-width: 0.8"/>
      </defs>
      <g>
       <use xlink:href="#ma6fe8733b6" x="39.22" y="249.902223" style="stroke: #000000; stroke-width: 0.8"/>
      </g>
     </g>
     <g id="text_5">
      <!-- 0 -->
      <g transform="translate(23.3125 255.221129) scale(0.14 -0.14)">
       <defs>
        <path id="DejaVuSerif-30" d="M 2034 219 
Q 2513 219 2750 744 
Q 2988 1269 2988 2328 
Q 2988 3391 2750 3916 
Q 2513 4441 2034 4441 
Q 1556 4441 1318 3916 
Q 1081 3391 1081 2328 
Q 1081 1269 1318 744 
Q 1556 219 2034 219 
z
M 2034 -91 
Q 1275 -91 848 546 
Q 422 1184 422 2328 
Q 422 3475 848 4112 
Q 1275 4750 2034 4750 
Q 2797 4750 3222 4112 
Q 3647 3475 3647 2328 
Q 3647 1184 3222 546 
Q 2797 -91 2034 -91 
z
" transform="scale(0.015625)"/>
       </defs>
       <use xlink:href="#DejaVuSerif-30"/>
      </g>
     </g>
    </g>
    <g id="ytick_2">
     <g id="line2d_11">
      <path d="M 39.22 199.624643 
L 474.965 199.624643 
" clip-path="url(#pd3f44cb5ff)" style="fill: none; stroke: #b0b0b0; stroke-opacity: 0.3; stroke-width: 0.5; stroke-linecap: square"/>
     </g>
     <g id="line2d_12">
      <g>
       <use xlink:href="#ma6fe8733b6" x="39.22" y="199.624643" style="stroke: #000000; stroke-width: 0.8"/>
      </g>
     </g>
     <g id="text_6">
      <!-- 1 -->
      <g transform="translate(23.3125 204.943549) scale(0.14 -0.14)">
       <defs>
        <path id="DejaVuSerif-31" d="M 909 0 
L 909 331 
L 1722 331 
L 1722 4213 
L 781 3603 
L 781 4013 
L 1919 4750 
L 2350 4750 
L 2350 331 
L 3163 331 
L 3163 0 
L 909 0 
z
" transform="scale(0.015625)"/>
       </defs>
       <use xlink:href="#DejaVuSerif-31"/>
      </g>
     </g>
    </g>
    <g id="ytick_3">
     <g id="line2d_13">
      <path d="M 39.22 149.347063 
L 474.965 149.347063 
" clip-path="url(#pd3f44cb5ff)" style="fill: none; stroke: #b0b0b0; stroke-opacity: 0.3; stroke-width: 0.5; stroke-linecap: square"/>
     </g>
     <g id="line2d_14">
      <g>
       <use xlink:href="#ma6fe8733b6" x="39.22" y="149.347063" style="stroke: #000000; stroke-width: 0.8"/>
      </g>
     </g>
     <g id="text_7">
      <!-- 2 -->
      <g transform="translate(23.3125 154.665969) scale(0.14 -0.14)">
       <defs>
        <path id="DejaVuSerif-32" d="M 819 3553 
L 469 3553 
L 469 4384 
Q 803 4563 1142 4656 
Q 1481 4750 1806 4750 
Q 2534 4750 2956 4397 
Q 3378 4044 3378 3438 
Q 3378 2753 2422 1800 
Q 2347 1728 2309 1691 
L 1131 513 
L 3078 513 
L 3078 1088 
L 3444 1088 
L 3444 0 
L 434 0 
L 434 341 
L 1850 1753 
Q 2319 2222 2519 2614 
Q 2719 3006 2719 3438 
Q 2719 3909 2473 4175 
Q 2228 4441 1797 4441 
Q 1350 4441 1106 4219 
Q 863 3997 819 3553 
z
" transform="scale(0.015625)"/>
       </defs>
       <use xlink:href="#DejaVuSerif-32"/>
      </g>
     </g>
    </g>
    <g id="ytick_4">
     <g id="line2d_15">
      <path d="M 39.22 99.069483 
L 474.965 99.069483 
" clip-path="url(#pd3f44cb5ff)" style="fill: none; stroke: #b0b0b0; stroke-opacity: 0.3; stroke-width: 0.5; stroke-linecap: square"/>
     </g>
     <g id="line2d_16">
      <g>
       <use xlink:href="#ma6fe8733b6" x="39.22" y="99.069483" style="stroke: #000000; stroke-width: 0.8"/>
      </g>
     </g>
     <g id="text_8">
      <!-- 3 -->
      <g transform="translate(23.3125 104.388389) scale(0.14 -0.14)">
       <defs>
        <path id="DejaVuSerif-33" d="M 622 4469 
Q 988 4606 1323 4678 
Q 1659 4750 1953 4750 
Q 2638 4750 3022 4454 
Q 3406 4159 3406 3634 
Q 3406 3213 3140 2930 
Q 2875 2647 2388 2547 
Q 2963 2466 3280 2130 
Q 3597 1794 3597 1259 
Q 3597 606 3158 257 
Q 2719 -91 1894 -91 
Q 1528 -91 1179 -12 
Q 831 66 488 225 
L 488 1131 
L 838 1131 
Q 869 681 1141 450 
Q 1413 219 1906 219 
Q 2384 219 2661 495 
Q 2938 772 2938 1253 
Q 2938 1803 2653 2086 
Q 2369 2369 1819 2369 
L 1522 2369 
L 1522 2688 
L 1678 2688 
Q 2225 2688 2498 2914 
Q 2772 3141 2772 3597 
Q 2772 4006 2547 4223 
Q 2322 4441 1900 4441 
Q 1478 4441 1245 4241 
Q 1013 4041 972 3647 
L 622 3647 
L 622 4469 
z
" transform="scale(0.015625)"/>
       </defs>
       <use xlink:href="#DejaVuSerif-33"/>
      </g>
     </g>
    </g>
    <g id="ytick_5">
     <g id="line2d_17">
      <path d="M 39.22 48.791902 
L 474.965 48.791902 
" clip-path="url(#pd3f44cb5ff)" style="fill: none; stroke: #b0b0b0; stroke-opacity: 0.3; stroke-width: 0.5; stroke-linecap: square"/>
     </g>
     <g id="line2d_18">
      <g>
       <use xlink:href="#ma6fe8733b6" x="39.22" y="48.791902" style="stroke: #000000; stroke-width: 0.8"/>
      </g>
     </g>
     <g id="text_9">
      <!-- 4 -->
      <g transform="translate(23.3125 54.110809) scale(0.14 -0.14)">
       <defs>
        <path id="DejaVuSerif-34" d="M 2234 1581 
L 2234 4063 
L 641 1581 
L 2234 1581 
z
M 3609 0 
L 1484 0 
L 1484 331 
L 2234 331 
L 2234 1247 
L 197 1247 
L 197 1588 
L 2241 4750 
L 2859 4750 
L 2859 1581 
L 3750 1581 
L 3750 1247 
L 2859 1247 
L 2859 331 
L 3609 331 
L 3609 0 
z
" transform="scale(0.015625)"/>
       </defs>
       <use xlink:href="#DejaVuSerif-34"/>
      </g>
     </g>
    </g>
    <g id="text_10">
     <!-- Resolution (Megapixels) -->
     <g transform="translate(15.7575 229.73025) rotate(-90) scale(0.16 -0.16)">
      <defs>
       <path id="DejaVuSerif-73" d="M 359 184 
L 359 959 
L 691 959 
Q 703 588 923 403 
Q 1144 219 1575 219 
Q 1963 219 2166 364 
Q 2369 509 2369 788 
Q 2369 1006 2220 1140 
Q 2072 1275 1594 1428 
L 1178 1569 
Q 750 1706 558 1912 
Q 366 2119 366 2438 
Q 366 2894 700 3153 
Q 1034 3413 1625 3413 
Q 1888 3413 2178 3344 
Q 2469 3275 2778 3144 
L 2778 2419 
L 2447 2419 
Q 2434 2741 2221 2922 
Q 2009 3103 1644 3103 
Q 1281 3103 1095 2975 
Q 909 2847 909 2591 
Q 909 2381 1050 2254 
Q 1191 2128 1613 1997 
L 2069 1856 
Q 2541 1709 2748 1489 
Q 2956 1269 2956 922 
Q 2956 450 2595 179 
Q 2234 -91 1600 -91 
Q 1278 -91 972 -22 
Q 666 47 359 184 
z
" transform="scale(0.015625)"/>
       <path id="DejaVuSerif-75" d="M 2266 3322 
L 3341 3322 
L 3341 331 
L 3884 331 
L 3884 0 
L 2766 0 
L 2766 588 
Q 2606 256 2353 82 
Q 2100 -91 1766 -91 
Q 1213 -91 952 223 
Q 691 538 691 1209 
L 691 2988 
L 172 2988 
L 172 3322 
L 1269 3322 
L 1269 1388 
Q 1269 781 1417 556 
Q 1566 331 1947 331 
Q 2347 331 2556 625 
Q 2766 919 2766 1478 
L 2766 2988 
L 2266 2988 
L 2266 3322 
z
" transform="scale(0.015625)"/>
       <path id="DejaVuSerif-74" d="M 691 2988 
L 184 2988 
L 184 3322 
L 691 3322 
L 691 4353 
L 1269 4353 
L 1269 3322 
L 2350 3322 
L 2350 2988 
L 1269 2988 
L 1269 878 
Q 1269 456 1350 337 
Q 1431 219 1650 219 
Q 1875 219 1978 351 
Q 2081 484 2088 781 
L 2522 781 
Q 2497 328 2275 118 
Q 2053 -91 1600 -91 
Q 1103 -91 897 129 
Q 691 350 691 878 
L 691 2988 
z
" transform="scale(0.015625)"/>
       <path id="DejaVuSerif-69" d="M 622 4353 
Q 622 4497 726 4603 
Q 831 4709 978 4709 
Q 1122 4709 1226 4603 
Q 1331 4497 1331 4353 
Q 1331 4206 1228 4103 
Q 1125 4000 978 4000 
Q 831 4000 726 4103 
Q 622 4206 622 4353 
z
M 1356 331 
L 1900 331 
L 1900 0 
L 231 0 
L 231 331 
L 781 331 
L 781 2988 
L 231 2988 
L 231 3322 
L 1356 3322 
L 1356 331 
z
" transform="scale(0.015625)"/>
       <path id="DejaVuSerif-20" transform="scale(0.015625)"/>
       <path id="DejaVuSerif-67" d="M 3359 2988 
L 3359 72 
Q 3359 -644 2965 -1033 
Q 2572 -1422 1844 -1422 
Q 1516 -1422 1216 -1362 
Q 916 -1303 641 -1184 
L 641 -488 
L 941 -488 
Q 997 -813 1206 -963 
Q 1416 -1113 1806 -1113 
Q 2313 -1113 2548 -827 
Q 2784 -541 2784 72 
L 2784 519 
Q 2616 206 2355 57 
Q 2094 -91 1709 -91 
Q 1097 -91 708 395 
Q 319 881 319 1663 
Q 319 2444 706 2928 
Q 1094 3413 1709 3413 
Q 2094 3413 2355 3264 
Q 2616 3116 2784 2803 
L 2784 3322 
L 3909 3322 
L 3909 2988 
L 3359 2988 
z
M 2784 1825 
Q 2784 2422 2554 2737 
Q 2325 3053 1888 3053 
Q 1444 3053 1217 2703 
Q 991 2353 991 1663 
Q 991 975 1217 622 
Q 1444 269 1888 269 
Q 2325 269 2554 583 
Q 2784 897 2784 1497 
L 2784 1825 
z
" transform="scale(0.015625)"/>
       <path id="DejaVuSerif-70" d="M 1313 1825 
L 1313 1497 
Q 1313 897 1542 583 
Q 1772 269 2209 269 
Q 2650 269 2876 622 
Q 3103 975 3103 1663 
Q 3103 2353 2876 2703 
Q 2650 3053 2209 3053 
Q 1772 3053 1542 2737 
Q 1313 2422 1313 1825 
z
M 738 2988 
L 184 2988 
L 184 3322 
L 1313 3322 
L 1313 2803 
Q 1481 3116 1742 3264 
Q 2003 3413 2388 3413 
Q 3000 3413 3387 2928 
Q 3775 2444 3775 1663 
Q 3775 881 3387 395 
Q 3000 -91 2388 -91 
Q 2003 -91 1742 57 
Q 1481 206 1313 519 
L 1313 -997 
L 1856 -997 
L 1856 -1331 
L 184 -1331 
L 184 -997 
L 738 -997 
L 738 2988 
z
" transform="scale(0.015625)"/>
       <path id="DejaVuSerif-78" d="M 1863 2028 
L 2559 2988 
L 2113 2988 
L 2113 3322 
L 3391 3322 
L 3391 2988 
L 2950 2988 
L 2059 1759 
L 3097 331 
L 3531 331 
L 3531 0 
L 1997 0 
L 1997 331 
L 2419 331 
L 1697 1325 
L 972 331 
L 1403 331 
L 1403 0 
L 141 0 
L 141 331 
L 581 331 
L 1497 1594 
L 488 2988 
L 78 2988 
L 78 3322 
L 1563 3322 
L 1563 2988 
L 1166 2988 
L 1863 2028 
z
" transform="scale(0.015625)"/>
      </defs>
      <use xlink:href="#DejaVuSerif-52"/>
      <use xlink:href="#DejaVuSerif-65" transform="translate(75.292969 0)"/>
      <use xlink:href="#DejaVuSerif-73" transform="translate(134.472656 0)"/>
      <use xlink:href="#DejaVuSerif-6f" transform="translate(185.791016 0)"/>
      <use xlink:href="#DejaVuSerif-6c" transform="translate(245.996094 0)"/>
      <use xlink:href="#DejaVuSerif-75" transform="translate(277.978516 0)"/>
      <use xlink:href="#DejaVuSerif-74" transform="translate(342.382812 0)"/>
      <use xlink:href="#DejaVuSerif-69" transform="translate(382.568359 0)"/>
      <use xlink:href="#DejaVuSerif-6f" transform="translate(414.550781 0)"/>
      <use xlink:href="#DejaVuSerif-6e" transform="translate(474.755859 0)"/>
      <use xlink:href="#DejaVuSerif-20" transform="translate(539.160156 0)"/>
      <use xlink:href="#DejaVuSerif-28" transform="translate(570.947266 0)"/>
      <use xlink:href="#DejaVuSerif-4d" transform="translate(609.960938 0)"/>
      <use xlink:href="#DejaVuSerif-65" transform="translate(712.353516 0)"/>
      <use xlink:href="#DejaVuSerif-67" transform="translate(771.533203 0)"/>
      <use xlink:href="#DejaVuSerif-61" transform="translate(835.546875 0)"/>
      <use xlink:href="#DejaVuSerif-70" transform="translate(895.166016 0)"/>
      <use xlink:href="#DejaVuSerif-69" transform="translate(959.179688 0)"/>
      <use xlink:href="#DejaVuSerif-78" transform="translate(991.162109 0)"/>
      <use xlink:href="#DejaVuSerif-65" transform="translate(1047.558594 0)"/>
      <use xlink:href="#DejaVuSerif-6c" transform="translate(1106.738281 0)"/>
      <use xlink:href="#DejaVuSerif-73" transform="translate(1138.720703 0)"/>
      <use xlink:href="#DejaVuSerif-29" transform="translate(1190.039062 0)"/>
     </g>
    </g>
   </g>
   <g id="patch_3">
    <path d="M 66.454063 191.258454 
L 120.922188 191.258454 
L 120.922188 119.582735 
L 66.454063 119.582735 
L 66.454063 191.258454 
z
" clip-path="url(#pd3f44cb5ff)" style="fill: #4878a8; opacity: 0.7; stroke: #000000; stroke-linejoin: miter"/>
   </g>
   <g id="line2d_19">
    <path d="M 93.688125 191.258454 
L 93.688125 245.775439 
" clip-path="url(#pd3f44cb5ff)" style="fill: none; stroke: #000000; stroke-linecap: square"/>
   </g>
   <g id="line2d_20">
    <path d="M 93.688125 119.582735 
L 93.688125 15.218545 
" clip-path="url(#pd3f44cb5ff)" style="fill: none; stroke: #000000; stroke-linecap: square"/>
   </g>
   <g id="line2d_21">
    <path d="M 80.071094 245.775439 
L 107.305156 245.775439 
" clip-path="url(#pd3f44cb5ff)" style="fill: none; stroke: #000000; stroke-linecap: square"/>
   </g>
   <g id="line2d_22">
    <path d="M 80.071094 15.218545 
L 107.305156 15.218545 
" clip-path="url(#pd3f44cb5ff)" style="fill: none; stroke: #000000; stroke-linecap: square"/>
   </g>
   <g id="patch_4">
    <path d="M 175.390313 199.035792 
L 229.858438 199.035792 
L 229.858438 176.597511 
L 175.390313 176.597511 
L 175.390313 199.035792 
z
" clip-path="url(#pd3f44cb5ff)" style="fill: #d95f5f; opacity: 0.7; stroke: #000000; stroke-linejoin: miter"/>
   </g>
   <g id="line2d_23">
    <path d="M 202.624375 199.035792 
L 202.624375 232.402408 
" clip-path="url(#pd3f44cb5ff)" style="fill: none; stroke: #000000; stroke-linecap: square"/>
   </g>
   <g id="line2d_24">
    <path d="M 202.624375 176.597511 
L 202.624375 143.651619 
" clip-path="url(#pd3f44cb5ff)" style="fill: none; stroke: #000000; stroke-linecap: square"/>
   </g>
   <g id="line2d_25">
    <path d="M 189.007344 232.402408 
L 216.241406 232.402408 
" clip-path="url(#pd3f44cb5ff)" style="fill: none; stroke: #000000; stroke-linecap: square"/>
   </g>
   <g id="line2d_26">
    <path d="M 189.007344 143.651619 
L 216.241406 143.651619 
" clip-path="url(#pd3f44cb5ff)" style="fill: none; stroke: #000000; stroke-linecap: square"/>
   </g>
   <g id="patch_5">
    <path d="M 284.326562 241.531006 
L 338.794688 241.531006 
L 338.794688 231.048131 
L 284.326562 231.048131 
L 284.326562 241.531006 
z
" clip-path="url(#pd3f44cb5ff)" style="fill: #5f9ea0; opacity: 0.7; stroke: #000000; stroke-linejoin: miter"/>
   </g>
   <g id="line2d_27">
    <path d="M 311.560625 241.531006 
L 311.560625 247.589455 
" clip-path="url(#pd3f44cb5ff)" style="fill: none; stroke: #000000; stroke-linecap: square"/>
   </g>
   <g id="line2d_28">
    <path d="M 311.560625 231.048131 
L 311.560625 221.49539 
" clip-path="url(#pd3f44cb5ff)" style="fill: none; stroke: #000000; stroke-linecap: square"/>
   </g>
   <g id="line2d_29">
    <path d="M 297.943594 247.589455 
L 325.177656 247.589455 
" clip-path="url(#pd3f44cb5ff)" style="fill: none; stroke: #000000; stroke-linecap: square"/>
   </g>
   <g id="line2d_30">
    <path d="M 297.943594 221.49539 
L 325.177656 221.49539 
" clip-path="url(#pd3f44cb5ff)" style="fill: none; stroke: #000000; stroke-linecap: square"/>
   </g>
   <g id="patch_6">
    <path d="M 393.262812 234.630408 
L 447.730937 234.630408 
L 447.730937 205.88199 
L 393.262812 205.88199 
L 393.262812 234.630408 
z
" clip-path="url(#pd3f44cb5ff)" style="fill: #e9967a; opacity: 0.7; stroke: #000000; stroke-linejoin: miter"/>
   </g>
   <g id="line2d_31">
    <path d="M 420.496875 234.630408 
L 420.496875 246.607232 
" clip-path="url(#pd3f44cb5ff)" style="fill: none; stroke: #000000; stroke-linecap: square"/>
   </g>
   <g id="line2d_32">
    <path d="M 420.496875 205.88199 
L 420.496875 163.408696 
" clip-path="url(#pd3f44cb5ff)" style="fill: none; stroke: #000000; stroke-linecap: square"/>
   </g>
   <g id="line2d_33">
    <path d="M 406.879844 246.607232 
L 434.113906 246.607232 
" clip-path="url(#pd3f44cb5ff)" style="fill: none; stroke: #000000; stroke-linecap: square"/>
   </g>
   <g id="line2d_34">
    <path d="M 406.879844 163.408696 
L 434.113906 163.408696 
" clip-path="url(#pd3f44cb5ff)" style="fill: none; stroke: #000000; stroke-linecap: square"/>
   </g>
   <g id="line2d_35">
    <path d="M 66.454063 176.332574 
L 120.922188 176.332574 
" clip-path="url(#pd3f44cb5ff)" style="fill: none; stroke: #000000; stroke-width: 1.5"/>
   </g>
   <g id="line2d_36">
    <path d="M 175.390313 191.258454 
L 229.858438 191.258454 
" clip-path="url(#pd3f44cb5ff)" style="fill: none; stroke: #000000; stroke-width: 1.5"/>
   </g>
   <g id="line2d_37">
    <path d="M 284.326562 240.877398 
L 338.794688 240.877398 
" clip-path="url(#pd3f44cb5ff)" style="fill: none; stroke: #000000; stroke-width: 1.5"/>
   </g>
   <g id="line2d_38">
    <path d="M 393.262812 220.555401 
L 447.730937 220.555401 
" clip-path="url(#pd3f44cb5ff)" style="fill: none; stroke: #000000; stroke-width: 1.5"/>
   </g>
   <g id="patch_7">
    <path d="M 39.22 259.208 
L 39.22 3.6 
" style="fill: none; stroke: #000000; stroke-width: 0.8; stroke-linejoin: miter; stroke-linecap: square"/>
   </g>
   <g id="patch_8">
    <path d="M 39.22 259.208 
L 474.965 259.208 
" style="fill: none; stroke: #000000; stroke-width: 0.8; stroke-linejoin: miter; stroke-linecap: square"/>
   </g>
  </g>
 </g>
 <defs>
  <clipPath id="pd3f44cb5ff">
   <rect x="39.22" y="3.6" width="435.745" height="255.608"/>
  </clipPath>
 </defs>
</svg>
